<svg width="1440" height="789" viewBox="0 0 1440 789" fill="none" xmlns="http://www.w3.org/2000/svg">
<g clip-path="url(#clip0)">
<rect width="1440" height="789" fill="white"/>
<path fill-rule="evenodd" clip-rule="evenodd" d="M1339.56 638.267C1339.56 756.913 1243.38 853.095 1124.73 853.095C1006.09 853.095 909.905 756.913 909.905 638.267C909.905 519.62 1006.09 423.439 1124.73 423.439C1243.38 423.439 1339.56 519.62 1339.56 638.267Z" fill="#3728B7"/>
<path fill-rule="evenodd" clip-rule="evenodd" d="M1269.81 638.267C1269.81 718.392 1204.86 783.346 1124.73 783.346C1044.61 783.346 979.655 718.392 979.655 638.267C979.655 558.142 1044.61 493.188 1124.73 493.188C1204.86 493.188 1269.81 558.142 1269.81 638.267Z" fill="url(#paint0_linear)"/>
<path fill-rule="evenodd" clip-rule="evenodd" d="M1124.73 362.06C972.189 362.06 848.526 485.723 848.526 638.268C848.526 790.812 972.189 914.475 1124.73 914.475C1277.28 914.475 1400.94 790.812 1400.94 638.268C1400.94 485.723 1277.28 362.06 1124.73 362.06ZM1124.73 364.85C1275.5 364.85 1398.15 487.503 1398.15 638.268C1398.15 789.03 1275.5 911.685 1124.73 911.685C973.969 911.685 851.316 789.03 851.316 638.268C851.316 487.503 973.969 364.85 1124.73 364.85Z" fill="url(#paint1_linear)"/>
<path fill-rule="evenodd" clip-rule="evenodd" d="M1124.73 392.749C989.138 392.749 879.216 502.672 879.216 638.267C879.216 773.863 989.138 883.785 1124.73 883.785C1260.33 883.785 1370.25 773.863 1370.25 638.267C1370.25 502.672 1260.33 392.749 1124.73 392.749ZM1124.73 395.539C1258.57 395.539 1367.46 504.427 1367.46 638.267C1367.46 772.108 1258.57 880.995 1124.73 880.995C990.893 880.995 882.005 772.108 882.005 638.267C882.005 504.427 990.893 395.539 1124.73 395.539Z" fill="url(#paint2_linear)"/>
<mask id="mask0" mask-type="alpha" maskUnits="userSpaceOnUse" x="1110" y="323" width="330" height="330">
<path fill-rule="evenodd" clip-rule="evenodd" d="M1110.78 323H1440V652.217H1110.78V323Z" fill="white"/>
</mask>
<g mask="url(#mask0)">
<path fill-rule="evenodd" clip-rule="evenodd" d="M1426.05 652.217C1418.34 652.217 1412.1 645.973 1412.1 638.267C1412.1 479.813 1283.19 350.9 1124.73 350.9C1117.03 350.9 1110.78 344.653 1110.78 336.95C1110.78 329.247 1117.03 323 1124.73 323C1298.57 323 1440 464.427 1440 638.267C1440 645.973 1433.76 652.217 1426.05 652.217Z" fill="url(#paint3_linear)"/>
<path fill-rule="evenodd" clip-rule="evenodd" d="M1124.86 350.9C1132.56 350.9 1138.81 344.654 1138.81 336.95C1138.81 329.246 1132.56 323 1124.86 323C1117.15 323 1110.91 329.246 1110.91 336.95C1110.91 344.654 1117.15 350.9 1124.86 350.9Z" fill="#A796FF"/>
</g>
<path fill-rule="evenodd" clip-rule="evenodd" d="M948.965 671.747C948.965 674.827 946.465 677.327 943.385 677.327C940.305 677.327 937.805 674.827 937.805 671.747C937.805 668.667 940.305 666.167 943.385 666.167C946.465 666.167 948.965 668.667 948.965 671.747Z" fill="#4E3BDB"/>
<path fill-rule="evenodd" clip-rule="evenodd" d="M1308.45 683.177C1308.45 686.257 1305.95 688.757 1302.87 688.757C1299.79 688.757 1297.29 686.257 1297.29 683.177C1297.29 680.097 1299.79 677.597 1302.87 677.597C1305.95 677.597 1308.45 680.097 1308.45 683.177Z" fill="#4E3BDB"/>
<path fill-rule="evenodd" clip-rule="evenodd" d="M1225.17 493.189C1225.17 496.269 1222.67 498.769 1219.59 498.769C1216.51 498.769 1214.01 496.269 1214.01 493.189C1214.01 490.109 1216.51 487.609 1219.59 487.609C1222.67 487.609 1225.17 490.109 1225.17 493.189Z" fill="#4E3BDB"/>
<path fill-rule="evenodd" clip-rule="evenodd" d="M1130.3 825.108C1122.81 825.108 1116.61 819.149 1116.37 811.599C1116.13 803.899 1122.17 797.46 1129.87 797.217C1175.63 795.763 1218.58 774.585 1247.71 739.102C1252.6 733.148 1261.39 732.283 1267.34 737.171C1273.3 742.059 1274.16 750.85 1269.27 756.807C1235.04 798.503 1184.55 823.395 1130.75 825.1C1130.6 825.105 1130.46 825.108 1130.3 825.108Z" fill="url(#paint4_linear)"/>
<path fill-rule="evenodd" clip-rule="evenodd" d="M965.705 638.267C965.705 550.729 1036.8 479.481 1124.28 479.239C1131.48 479.219 1137.88 473.913 1138.61 466.753C1139.46 458.392 1132.92 451.339 1124.73 451.339C1021.66 451.339 937.805 535.194 937.805 638.267C937.805 638.803 937.836 639.333 937.894 639.855C938.578 645.836 947.601 644.974 947.57 638.956C947.57 638.725 947.57 638.496 947.57 638.267C947.57 626.248 948.781 614.237 951.169 602.567C951.632 600.304 953.833 598.839 956.11 599.305C958.373 599.771 959.835 601.981 959.369 604.246C957.095 615.364 955.94 626.812 955.94 638.267V638.398C955.945 644.681 965.562 644.863 965.702 638.582C965.705 638.479 965.705 638.373 965.705 638.267Z" fill="url(#paint5_linear)"/>
<path fill-rule="evenodd" clip-rule="evenodd" d="M1138.68 465.289C1138.68 472.992 1132.44 479.239 1124.73 479.239C1117.03 479.239 1110.78 472.992 1110.78 465.289C1110.78 457.586 1117.03 451.339 1124.73 451.339C1132.44 451.339 1138.68 457.586 1138.68 465.289Z" fill="#A796FF"/>
<path fill-rule="evenodd" clip-rule="evenodd" d="M1255.86 638.267C1255.86 710.686 1197.15 769.396 1124.73 769.396C1052.31 769.396 993.605 710.686 993.605 638.267C993.605 565.845 1052.31 507.138 1124.73 507.138C1197.15 507.138 1255.86 565.845 1255.86 638.267Z" fill="#6851FF"/>
<path fill-rule="evenodd" clip-rule="evenodd" d="M993.607 638.267C993.607 710.686 1052.31 769.396 1124.73 769.396C1197.15 769.396 1255.86 710.686 1255.86 638.267C1255.86 565.845 1197.15 507.138 1124.73 507.138C1052.31 507.138 993.607 565.845 993.607 638.267Z" fill="url(#paint6_linear)"/>
<mask id="mask1" mask-type="alpha" maskUnits="userSpaceOnUse" x="993" y="507" width="263" height="263">
<path fill-rule="evenodd" clip-rule="evenodd" d="M993.607 638.267C993.607 710.686 1052.31 769.396 1124.73 769.396C1197.15 769.396 1255.86 710.686 1255.86 638.267C1255.86 565.845 1197.15 507.138 1124.73 507.138C1052.31 507.138 993.607 565.845 993.607 638.267Z" fill="white"/>
</mask>
<g mask="url(#mask1)">
<path d="M1315.48 353.071C1322.91 416.892 1291.64 483.689 1237.87 518.857C1184.09 554.025 1110.36 555.897 1054.87 523.505C999.38 491.116 964.756 425.99 968.939 361.873" stroke="white" stroke-width="3.1"/>
</g>
<mask id="mask2" mask-type="alpha" maskUnits="userSpaceOnUse" x="993" y="507" width="263" height="263">
<path fill-rule="evenodd" clip-rule="evenodd" d="M993.607 638.267C993.607 710.686 1052.31 769.396 1124.73 769.396C1197.15 769.396 1255.86 710.686 1255.86 638.267C1255.86 565.845 1197.15 507.138 1124.73 507.138C1052.31 507.138 993.607 565.845 993.607 638.267Z" fill="white"/>
</mask>
<g mask="url(#mask2)">
<path d="M884.23 420.062C934.363 416.859 984.078 444.7 1011.78 486.603C1039.49 528.509 1046.09 582.536 1034.28 631.364C1022.47 680.191 993.371 723.843 956.303 757.753C919.236 791.656 874.454 816.292 827.75 834.792" stroke="white" stroke-width="3.1"/>
</g>
<mask id="mask3" mask-type="alpha" maskUnits="userSpaceOnUse" x="993" y="507" width="263" height="263">
<path fill-rule="evenodd" clip-rule="evenodd" d="M993.607 638.267C993.607 710.686 1052.31 769.396 1124.73 769.396C1197.15 769.396 1255.86 710.686 1255.86 638.267C1255.86 565.845 1197.15 507.138 1124.73 507.138C1052.31 507.138 993.607 565.845 993.607 638.267Z" fill="white"/>
</mask>
<g mask="url(#mask3)">
<path d="M1380.46 705.3C1347.28 743.015 1292.44 758.483 1243.22 748.444C1193.99 738.406 1151.12 704.868 1124.95 661.991C1098.77 619.112 1088.48 567.668 1090.72 517.484C1092.95 467.298 1107.2 418.214 1127.14 372.107" stroke="white" stroke-width="3.1"/>
</g>
<mask id="mask4" mask-type="alpha" maskUnits="userSpaceOnUse" x="993" y="507" width="263" height="263">
<path fill-rule="evenodd" clip-rule="evenodd" d="M993.607 638.267C993.607 710.686 1052.31 769.396 1124.73 769.396C1197.15 769.396 1255.86 710.686 1255.86 638.267C1255.86 565.845 1197.15 507.138 1124.73 507.138C1052.31 507.138 993.607 565.845 993.607 638.267Z" fill="white"/>
</mask>
<g mask="url(#mask4)">
<path d="M862.121 730.83C1003.68 601.043 1198.46 531.157 1390.24 541.343" stroke="white" stroke-width="3.1"/>
</g>
<mask id="mask5" mask-type="alpha" maskUnits="userSpaceOnUse" x="993" y="507" width="263" height="263">
<path fill-rule="evenodd" clip-rule="evenodd" d="M993.607 638.267C993.607 710.686 1052.31 769.396 1124.73 769.396C1197.15 769.396 1255.86 710.686 1255.86 638.267C1255.86 565.845 1197.15 507.138 1124.73 507.138C1052.31 507.138 993.607 565.845 993.607 638.267Z" fill="white"/>
</mask>
<g mask="url(#mask5)">
<path d="M1057.38 935.926C1032.43 876.712 1043.82 803.84 1085.64 755.066C1127.46 706.286 1197.74 683.913 1260.07 699.531C1322.39 715.147 1373.82 768.023 1387.7 830.758" stroke="white" stroke-width="3.1"/>
</g>
<mask id="mask6" mask-type="alpha" maskUnits="userSpaceOnUse" x="993" y="507" width="263" height="263">
<path fill-rule="evenodd" clip-rule="evenodd" d="M993.607 638.267C993.607 710.686 1052.31 769.396 1124.73 769.396C1197.15 769.396 1255.86 710.686 1255.86 638.267C1255.86 565.845 1197.15 507.138 1124.73 507.138C1052.31 507.138 993.607 565.845 993.607 638.267Z" fill="white"/>
</mask>
<g mask="url(#mask6)">
</g>
<mask id="mask7" mask-type="alpha" maskUnits="userSpaceOnUse" x="993" y="507" width="263" height="263">
<path fill-rule="evenodd" clip-rule="evenodd" d="M993.607 638.267C993.607 710.686 1052.31 769.396 1124.73 769.396C1197.15 769.396 1255.86 710.686 1255.86 638.267C1255.86 565.845 1197.15 507.138 1124.73 507.138C1052.31 507.138 993.607 565.845 993.607 638.267Z" fill="white"/>
</mask>
<g mask="url(#mask7)">
<path d="M955.556 752.591C974.55 691.209 1030.15 642.747 1093.55 632.31C1156.95 621.872 1225.15 649.956 1262.82 702.009C1300.48 754.061 1305.84 827.625 1276.1 884.582" stroke="white" stroke-width="3.1"/>
</g>
<path d="M897.705 734.14C892.831 739.014 884.545 730.725 879.671 735.599C874.791 740.479 883.077 748.765 878.198 753.645C873.318 758.527 865.032 750.241 860.152 755.124C855.27 760.003 863.556 768.289 858.673 773.169C853.785 778.06 845.499 769.774 840.608 774.662C835.72 779.553 844.004 787.839 839.116 792.73" stroke="#00C988" stroke-width="3.1" stroke-linecap="round" stroke-linejoin="round"/>
<path d="M1374.02 617.258C1367.11 617.258 1367.11 600.688 1360.21 600.688C1353.31 600.688 1353.31 617.258 1346.41 617.258C1339.51 617.258 1339.51 600.688 1332.61 600.688C1325.7 600.688 1325.7 617.258 1318.8 617.258C1311.89 617.258 1311.89 600.688 1304.98 600.688C1298.07 600.688 1298.07 617.258 1291.16 617.258" stroke="white" stroke-width="3.1" stroke-linecap="round" stroke-linejoin="round"/>
<path fill-rule="evenodd" clip-rule="evenodd" d="M1080.09 696.857C1080.09 701.48 1076.35 705.227 1071.72 705.227C1067.1 705.227 1063.35 701.48 1063.35 696.857C1063.35 692.234 1067.1 688.487 1071.72 688.487C1076.35 688.487 1080.09 692.234 1080.09 696.857Z" fill="#A796FF"/>
<path fill-rule="evenodd" clip-rule="evenodd" d="M1180.53 671.747C1180.53 674.827 1178.03 677.327 1174.95 677.327C1171.87 677.327 1169.37 674.827 1169.37 671.747C1169.37 668.667 1171.87 666.167 1174.95 666.167C1178.03 666.167 1180.53 668.667 1180.53 671.747Z" fill="#00C988"/>
<path fill-rule="evenodd" clip-rule="evenodd" d="M1156.7 599.365C1154.95 607.263 1159.94 615.078 1167.84 616.822C1168.91 617.056 1169.97 617.17 1171.01 617.17C1177.73 617.17 1183.79 612.511 1185.3 605.676L1156.7 599.365ZM1159.14 602.763L1181.64 607.726C1179.68 611.702 1175.57 614.38 1171.01 614.38C1170.15 614.38 1169.29 614.285 1168.45 614.098C1163 612.896 1159.25 608.106 1159.14 602.763Z" fill="#C9FCD8"/>
<path fill-rule="evenodd" clip-rule="evenodd" d="M1022.28 768.001L1000.58 789.701L978.877 768.001H1022.28Z" fill="#00C988"/>
<path fill-rule="evenodd" clip-rule="evenodd" d="M1022.28 768.001L1000.58 789.701V768.001H1022.28Z" fill="#00907E"/>
<path fill-rule="evenodd" clip-rule="evenodd" d="M1394.15 343.489L1411.36 368.9L1385.94 386.11L1394.15 343.489Z" fill="#00C988"/>
<path fill-rule="evenodd" clip-rule="evenodd" d="M1394.15 343.489L1411.36 368.9L1390.05 364.798L1394.15 343.489Z" fill="#00907E"/>
<path fill-rule="evenodd" clip-rule="evenodd" d="M1175.86 594.135C1178.52 582.1 1190.43 574.494 1202.47 577.15C1214.51 579.806 1222.11 591.717 1219.45 603.755L1175.86 594.135Z" fill="#C9FCD8"/>
<path fill-rule="evenodd" clip-rule="evenodd" d="M1219.45 603.755C1222.11 591.719 1214.51 579.805 1202.47 577.149L1197.92 599.003L1219.45 603.755Z" fill="#5FEEA4"/>
<path fill-rule="evenodd" clip-rule="evenodd" d="M1331.19 540.618C1331.19 548.321 1324.95 554.568 1317.24 554.568C1309.53 554.568 1303.29 548.321 1303.29 540.618C1303.29 532.915 1309.53 526.668 1317.24 526.668C1324.95 526.668 1331.19 532.915 1331.19 540.618Z" fill="#00C988"/>
<path fill-rule="evenodd" clip-rule="evenodd" d="M1317.24 526.668C1324.95 526.668 1331.19 532.915 1331.19 540.618C1331.19 548.321 1324.95 554.568 1317.24 554.568V526.668Z" fill="#00AC85"/>
<path fill-rule="evenodd" clip-rule="evenodd" d="M1075.18 774.076C1075.18 776.064 1073.56 777.676 1071.58 777.676C1069.59 777.676 1067.98 776.064 1067.98 774.076C1067.98 772.089 1069.59 770.476 1071.58 770.476C1073.56 770.476 1075.18 772.089 1075.18 774.076Z" fill="white"/>
<path fill-rule="evenodd" clip-rule="evenodd" d="M1241.5 547.998C1241.5 549.985 1239.88 551.598 1237.9 551.598C1235.91 551.598 1234.3 549.985 1234.3 547.998C1234.3 546.011 1235.91 544.398 1237.9 544.398C1239.88 544.398 1241.5 546.011 1241.5 547.998Z" fill="white"/>
<path fill-rule="evenodd" clip-rule="evenodd" d="M1100.6 78.2749C1092.14 69.3148 1092.54 55.1866 1101.5 46.7229C1110.46 38.2568 1124.58 38.6603 1133.05 47.622L1100.6 78.2749Z" fill="#C9FCD8"/>
<path fill-rule="evenodd" clip-rule="evenodd" d="M1133.05 47.6214C1124.59 38.6613 1110.46 38.2563 1101.5 46.7223L1117.02 62.7616L1133.05 47.6214Z" fill="#5FEEA4"/>
<path fill-rule="evenodd" clip-rule="evenodd" d="M1125.64 66.3122C1131.19 72.1928 1140.46 72.4551 1146.34 66.9013C1147.13 66.1537 1147.82 65.341 1148.41 64.4755C1152.19 58.9158 1151.74 51.2874 1146.93 46.198L1125.64 66.3122ZM1129.82 66.1976L1146.57 50.3757C1148.76 54.2298 1148.66 59.1366 1146.1 62.9077C1145.62 63.6185 1145.06 64.2784 1144.43 64.8726C1140.37 68.7019 1134.3 69.1097 1129.82 66.1976Z" fill="#5FEEA4"/>
<path fill-rule="evenodd" clip-rule="evenodd" d="M1121.86 208.691L1106.35 217.863L1097.17 202.345L1112.69 193.174L1121.86 208.691Z" fill="#00AC85"/>
<mask id="mask8" mask-type="alpha" maskUnits="userSpaceOnUse" x="1094" y="202" width="28" height="20">
<path fill-rule="evenodd" clip-rule="evenodd" d="M1097.17 202.344L1121.86 208.691L1118.69 221.036L1094 214.689L1097.17 202.344Z" fill="white"/>
</mask>
<g mask="url(#mask8)">
<path fill-rule="evenodd" clip-rule="evenodd" d="M1121.86 208.691L1106.35 217.863L1097.17 202.345L1121.86 208.691Z" fill="#00C988"/>
</g>
<g opacity="0.7">
<path fill-rule="evenodd" clip-rule="evenodd" d="M629.401 233.641L618.395 253.732L598.301 242.726L629.401 233.641Z" fill="#4E3BDB"/>
<path fill-rule="evenodd" clip-rule="evenodd" d="M629.401 233.641L618.395 253.732L613.852 238.183L629.401 233.641Z" fill="#A796FF"/>
</g>
<path fill-rule="evenodd" clip-rule="evenodd" d="M350.751 561.525L324.327 569.75L316.1 543.324L342.526 535.101L350.751 561.525Z" fill="#00C988"/>
<mask id="mask9" mask-type="alpha" maskUnits="userSpaceOnUse" x="307" y="543" width="44" height="36">
<path fill-rule="evenodd" clip-rule="evenodd" d="M316.101 543.324L350.751 561.524L341.652 578.849L307.002 560.648L316.101 543.324Z" fill="white"/>
</mask>
<g mask="url(#mask9)">
<path fill-rule="evenodd" clip-rule="evenodd" d="M350.751 561.524L324.327 569.749L316.1 543.323L350.751 561.524Z" fill="#5FEEA4"/>
</g>
<path fill-rule="evenodd" clip-rule="evenodd" d="M182.773 28.2879C174.697 100.768 109.256 153.201 36.7992 145.331C30.8398 144.683 25.0509 148.487 23.7852 154.347C22.3115 161.192 27.0733 167.635 33.8533 168.39C119.196 177.9 196.364 116.205 205.874 30.8619C205.923 30.4184 205.946 29.9767 205.946 29.5393C205.932 24.5234 198.382 24.4048 197.852 29.3904C197.831 29.5822 197.809 29.7716 197.788 29.961C196.679 39.9128 194.569 49.7459 191.515 59.1886C190.922 61.0193 188.965 62.029 187.123 61.4332C185.292 60.8386 184.285 58.8742 184.88 57.0414C187.789 48.0456 189.801 38.674 190.858 29.1888L190.87 29.0803C191.445 23.8775 183.499 22.8401 182.804 28.0272C182.792 28.1124 182.783 28.2001 182.773 28.2879Z" fill="url(#paint7_linear)"/>
<path fill-rule="evenodd" clip-rule="evenodd" d="M23.5905 155.552C24.3012 149.174 30.0475 144.578 36.4279 145.289C42.806 146 47.4019 151.748 46.6912 158.126C45.9805 164.505 40.2319 169.1 33.8539 168.39C27.4735 167.679 22.8799 161.931 23.5905 155.552Z" fill="#5FEEA4"/>
<g opacity="0.6">
<path fill-rule="evenodd" clip-rule="evenodd" d="M70.488 561.789C60.6073 540.721 35.5188 531.65 14.4495 541.531C-6.61905 551.412 -15.6888 576.502 -5.80812 597.57C4.07298 618.64 29.1627 627.709 50.2312 617.828C71.3006 607.947 80.3691 582.858 70.488 561.789Z" fill="url(#paint8_linear)"/>
<mask id="mask10" mask-type="alpha" maskUnits="userSpaceOnUse" x="-10" y="537" width="85" height="85">
<path fill-rule="evenodd" clip-rule="evenodd" d="M70.488 561.789C60.6073 540.721 35.5188 531.65 14.4495 541.531C-6.61905 551.412 -15.6888 576.502 -5.80812 597.57C4.07298 618.64 29.1627 627.709 50.2312 617.828C71.3006 607.947 80.3691 582.858 70.488 561.789Z" fill="white"/>
</mask>
<g mask="url(#mask10)">
<path d="M15.7584 688.675C4.88854 671.122 4.87285 647.422 15.718 629.855C26.5647 612.286 47.7593 601.682 68.3229 603.534C88.8852 605.386 107.844 619.609 115.375 638.833" stroke="white" stroke-width="2.1"/>
</g>
</g>
<mask id="mask11" mask-type="alpha" maskUnits="userSpaceOnUse" x="-10" y="537" width="85" height="85">
<path fill-rule="evenodd" clip-rule="evenodd" d="M70.488 561.789C60.6073 540.721 35.5188 531.65 14.4495 541.531C-6.61905 551.412 -15.6888 576.502 -5.80812 597.57C4.07298 618.64 29.1627 627.709 50.2312 617.828C71.3006 607.947 80.3691 582.858 70.488 561.789Z" fill="white"/>
</mask>
<g mask="url(#mask11)">
<path d="M132.08 610.347C117.932 618.118 99.6701 616.802 85.8923 608.392C72.115 599.98 62.8239 585.162 59.597 569.346C56.371 553.53 58.8809 536.861 65.0382 521.938C71.1963 507.017 80.8633 493.74 91.9265 481.986" stroke="white" stroke-width="2.1"/>
</g>
<mask id="mask12" mask-type="alpha" maskUnits="userSpaceOnUse" x="-10" y="537" width="85" height="85">
<path fill-rule="evenodd" clip-rule="evenodd" d="M70.488 561.789C60.6073 540.721 35.5188 531.65 14.4495 541.531C-6.61905 551.412 -15.6888 576.502 -5.80812 597.57C4.07298 618.64 29.1627 627.709 50.2312 617.828C71.3006 607.947 80.3691 582.858 70.488 561.789Z" fill="white"/>
</mask>
<g mask="url(#mask12)">
<path d="M-51.2024 595.07C-46.6942 579.57 -32.8503 567.588 -17.1613 563.793C-1.47137 559.997 15.5758 563.905 29.0417 572.807C42.5071 581.711 52.5202 595.273 58.7162 610.178C64.9133 625.083 67.4658 641.306 67.9539 657.441" stroke="white" stroke-width="2.1"/>
</g>
<mask id="mask13" mask-type="alpha" maskUnits="userSpaceOnUse" x="-10" y="537" width="85" height="85">
<path fill-rule="evenodd" clip-rule="evenodd" d="M70.488 561.789C60.6073 540.721 35.5188 531.65 14.4495 541.531C-6.61905 551.412 -15.6888 576.502 -5.80812 597.57C4.07298 618.64 29.1627 627.709 50.2312 617.828C71.3006 607.947 80.3691 582.858 70.488 561.789Z" fill="white"/>
</mask>
<g mask="url(#mask13)">
<path d="M44.5278 469.922C52.8044 531.075 35.5135 595.284 -2.35067 644.011" stroke="white" stroke-width="2.1"/>
</g>
<path fill-rule="evenodd" clip-rule="evenodd" d="M439.461 62.2206C439.461 65.3007 436.961 67.8005 433.881 67.8005C430.801 67.8005 428.301 65.3007 428.301 62.2206C428.301 59.1404 430.801 56.6406 433.881 56.6406C436.961 56.6406 439.461 59.1404 439.461 62.2206Z" fill="#E2DCFF"/>
<path fill-rule="evenodd" clip-rule="evenodd" d="M533.16 669.58C533.16 672.66 530.66 675.16 527.58 675.16C524.5 675.16 522 672.66 522 669.58C522 666.5 524.5 664 527.58 664C530.66 664 533.16 666.5 533.16 669.58Z" fill="#E2DCFF"/>
<path fill-rule="evenodd" clip-rule="evenodd" d="M770.461 793.221C770.461 796.301 767.961 798.801 764.881 798.801C761.801 798.801 759.301 796.301 759.301 793.221C759.301 790.14 761.801 787.641 764.881 787.641C767.961 787.641 770.461 790.14 770.461 793.221Z" fill="#E2DCFF"/>
<path fill-rule="evenodd" clip-rule="evenodd" d="M428.461 204.72C428.461 209.18 424.842 212.8 420.381 212.8C415.921 212.8 412.301 209.18 412.301 204.72C412.301 200.26 415.921 196.64 420.381 196.64C424.842 196.64 428.461 200.26 428.461 204.72Z" fill="#C9FCD8"/>
<path fill-rule="evenodd" clip-rule="evenodd" d="M146.461 82.2201C146.461 85.3002 143.961 87.8 140.881 87.8C137.801 87.8 135.301 85.3002 135.301 82.2201C135.301 79.14 137.801 76.6401 140.881 76.6401C143.961 76.6401 146.461 79.14 146.461 82.2201Z" fill="#E2DCFF"/>
<circle cx="684.719" cy="52.2299" r="27.6794" transform="rotate(-135 684.719 52.2299)" fill="#C9FCD8"/>
<mask id="mask14" mask-type="alpha" maskUnits="userSpaceOnUse" x="631" y="7" width="119" height="118">
<rect x="651.446" y="124.648" width="27.6794" height="138.397" transform="rotate(-135 651.446 124.648)" fill="#C4C4C4"/>
</mask>
<g mask="url(#mask14)">
<circle cx="684.719" cy="52.2299" r="27.6794" transform="rotate(-135 684.719 52.2299)" fill="#5FEEA4"/>
</g>
<path fill-rule="evenodd" clip-rule="evenodd" d="M1369.46 185.221C1369.46 189.957 1365.62 193.801 1360.88 193.801C1356.14 193.801 1352.3 189.957 1352.3 185.221C1352.3 180.484 1356.14 176.641 1360.88 176.641C1365.62 176.641 1369.46 180.484 1369.46 185.221Z" fill="#E2DCFF"/>
<path fill-rule="evenodd" clip-rule="evenodd" d="M402.461 368.22C402.461 371.852 399.514 374.8 395.881 374.8C392.249 374.8 389.301 371.852 389.301 368.22C389.301 364.588 392.249 361.64 395.881 361.64C399.514 361.64 402.461 364.588 402.461 368.22Z" fill="#C9FCD8"/>
<path d="M1460.94 119.768C1455.06 116.161 1461.2 106.175 1455.32 102.568C1449.44 98.9566 1443.31 108.943 1437.43 105.332C1431.55 101.721 1437.68 91.7352 1431.8 88.1249C1425.91 84.5111 1419.78 94.4973 1413.9 90.8836C1408.01 87.267 1414.14 77.2809 1408.25 73.6609C1402.35 70.0444 1396.22 80.0278 1390.33 76.4113" stroke="#00C988" stroke-width="3.1" stroke-linecap="round" stroke-linejoin="round"/>
<path d="M976.34 251.137C972.404 249.576 975.059 242.884 971.123 241.323C967.183 239.76 964.529 246.452 960.589 244.889C956.647 243.327 959.301 236.636 955.359 235.074C951.418 233.509 948.764 240.2 944.823 238.636C940.874 237.071 943.528 230.38 939.58 228.813C935.631 227.248 932.977 233.938 929.028 232.373" stroke="#00C988" stroke-width="3.1" stroke-linecap="round" stroke-linejoin="round"/>
<path fill-rule="evenodd" clip-rule="evenodd" d="M1403.16 208.58C1403.16 212.212 1400.21 215.16 1396.58 215.16C1392.95 215.16 1390 212.212 1390 208.58C1390 204.948 1392.95 202 1396.58 202C1400.21 202 1403.16 204.948 1403.16 208.58Z" fill="#C9FCD8"/>
<path d="M129.671 472.689C132.451 478.996 121.726 483.722 124.507 490.03C127.29 496.344 138.013 491.617 140.797 497.932C143.583 504.247 132.86 508.974 135.647 515.29C138.429 521.607 149.152 516.88 151.935 523.197C154.726 529.523 144.003 534.25 146.791 540.578C149.582 546.905 160.303 542.18 163.095 548.507" stroke="#A796FF" stroke-width="3.1" stroke-linecap="round" stroke-linejoin="round"/>
<path fill-rule="evenodd" clip-rule="evenodd" d="M-127.007 209.233C-58.0457 399.424 152.041 497.702 342.233 428.741C532.424 359.78 630.702 149.693 561.741 -40.4986C492.78 -230.69 282.693 -328.968 92.5015 -260.007C-97.6902 -191.046 -195.968 19.0408 -127.007 209.233ZM-123.528 207.97C-191.683 20.0013 -94.2095 -188.373 93.7629 -256.529C281.732 -324.684 490.107 -227.207 558.262 -39.2383C626.419 148.734 528.94 357.106 340.971 425.261C152.999 493.418 -55.3717 395.943 -123.528 207.97Z" fill="url(#paint9_linear)"/>
<path opacity="0.4" fill-rule="evenodd" clip-rule="evenodd" d="M388.387 377.973C554.282 282.193 611.121 70.0636 515.342 -95.8313C419.563 -261.726 207.433 -318.566 41.538 -222.787C-124.357 -127.007 -181.197 85.1223 -85.4174 251.017C10.3621 416.912 222.492 473.752 388.387 377.973ZM386.416 374.56C222.668 469.1 12.5357 412.795 -82.0042 249.047C-176.544 85.2995 -120.239 -124.833 43.5085 -219.373C207.256 -313.912 417.389 -257.608 511.929 -93.8598C606.468 69.8882 550.164 280.02 386.416 374.56Z" fill="url(#paint10_linear)"/>
<g opacity="0.6">
<path fill-rule="evenodd" clip-rule="evenodd" d="M1079.42 189.496C1084.13 180.964 1081.03 170.231 1072.5 165.523C1063.97 160.815 1053.23 163.915 1048.53 172.447C1043.82 180.98 1046.92 191.713 1055.45 196.421C1063.98 201.129 1074.71 198.029 1079.42 189.496Z" fill="url(#paint11_linear)"/>
</g>
<g opacity="0.4">
<path fill-rule="evenodd" clip-rule="evenodd" d="M279.701 107.431C275.101 117.765 279.748 129.871 290.082 134.471C300.416 139.071 312.522 134.423 317.122 124.089C321.722 113.756 317.074 101.65 306.741 97.0494C296.407 92.4492 284.301 97.0971 279.701 107.431Z" fill="url(#paint12_linear)"/>
<path d="M265.047 124.836C260.093 106.346 271.066 87.3406 289.556 82.3861L290.074 84.318C272.65 88.9865 262.311 106.895 266.979 124.319L265.047 124.836ZM289.556 82.3861C308.046 77.4317 327.052 88.4046 332.006 106.895L330.074 107.412C325.406 89.9892 307.497 79.6495 290.074 84.318L289.556 82.3861ZM332.006 106.895C336.96 125.385 325.988 144.39 307.497 149.345L306.98 147.413C324.403 142.744 334.743 124.835 330.074 107.412L332.006 106.895ZM307.497 149.345C289.007 154.299 270.002 143.326 265.047 124.836L266.979 124.319C271.648 141.742 289.557 152.081 306.98 147.413L307.497 149.345ZM267.349 124.22C271.955 141.411 289.69 151.65 306.881 147.044L307.398 148.976C289.141 153.868 270.309 142.995 265.417 124.738L267.349 124.22ZM306.881 147.044C324.071 142.438 334.311 124.703 329.705 107.512L331.636 106.994C336.529 125.252 325.656 144.084 307.398 148.976L306.881 147.044ZM329.705 107.512C325.098 90.321 307.363 80.0816 290.172 84.6879L289.655 82.756C307.913 77.8639 326.744 88.7364 331.636 106.994L329.705 107.512ZM290.172 84.6879C272.982 89.2941 262.742 107.029 267.349 124.22L265.417 124.738C260.525 106.48 271.397 87.6482 289.655 82.756L290.172 84.6879Z" fill="url(#paint13_linear)"/>
</g>
<path fill-rule="evenodd" clip-rule="evenodd" d="M774.461 728.221C774.461 734.613 769.273 739.801 762.881 739.801C756.489 739.801 751.301 734.613 751.301 728.221C751.301 721.829 756.489 716.641 762.881 716.641C769.273 716.641 774.461 721.829 774.461 728.221Z" fill="#C9FCD8"/>
<path opacity="0.6" d="M729.047 736.837C724.092 718.347 735.065 699.341 753.555 694.387L754.073 696.319C736.65 700.987 726.31 718.896 730.979 736.319L729.047 736.837ZM753.555 694.387C772.045 689.432 791.051 700.405 796.005 718.895L794.074 719.413C789.405 701.99 771.496 691.65 754.073 696.319L753.555 694.387ZM796.005 718.895C800.96 737.385 789.987 756.391 771.497 761.345L770.979 759.413C788.402 754.745 798.742 736.836 794.074 719.413L796.005 718.895ZM771.497 761.345C753.007 766.3 734.001 755.327 729.047 736.837L730.979 736.319C735.647 753.742 753.556 764.082 770.979 759.413L771.497 761.345ZM731.348 736.22C735.954 753.411 753.689 763.651 770.88 759.044L771.398 760.976C753.14 765.868 734.308 754.996 729.416 736.738L731.348 736.22ZM770.88 759.044C788.071 754.438 798.31 736.703 793.704 719.512L795.636 718.995C800.528 737.252 789.655 756.084 771.398 760.976L770.88 759.044ZM793.704 719.512C789.098 702.322 771.363 692.082 754.172 696.688L753.654 694.757C771.912 689.864 790.744 700.737 795.636 718.995L793.704 719.512ZM754.172 696.688C736.981 701.295 726.742 719.03 731.348 736.22L729.416 736.738C724.524 718.48 735.397 699.649 753.654 694.757L754.172 696.688Z" fill="url(#paint14_linear)"/>
<g opacity="0.2">
<path fill-rule="evenodd" clip-rule="evenodd" d="M341.288 739.683C341.288 715.769 321.903 696.383 297.988 696.383C274.074 696.383 254.688 715.769 254.688 739.683C254.688 763.597 274.074 782.983 297.988 782.983C321.903 782.983 341.288 763.597 341.288 739.683Z" fill="url(#paint15_linear)"/>
<path d="M232.944 756.363C223.356 720.582 244.59 683.804 280.371 674.217L280.888 676.149C246.175 685.45 225.574 721.132 234.876 755.845L232.944 756.363ZM280.371 674.217C316.151 664.63 352.929 685.863 362.517 721.644L360.585 722.161C351.283 687.448 315.602 666.847 280.888 676.149L280.371 674.217ZM362.517 721.644C372.104 757.424 350.87 794.202 315.09 803.79L314.572 801.858C349.286 792.556 369.886 756.875 360.585 722.161L362.517 721.644ZM315.09 803.79C279.309 813.377 242.531 792.143 232.944 756.363L234.876 755.845C244.177 790.559 279.858 811.159 314.572 801.858L315.09 803.79ZM235.601 755.65C244.78 789.907 280.12 810.311 314.378 801.132L314.895 803.063C279.571 812.529 243.134 791.492 233.669 756.167L235.601 755.65ZM314.378 801.132C348.635 791.952 369.039 756.612 359.859 722.355L361.791 721.837C371.256 757.161 350.22 793.598 314.895 803.063L314.378 801.132ZM359.859 722.355C350.68 688.097 315.34 667.694 281.083 676.873L280.565 674.941C315.889 665.476 352.326 686.513 361.791 721.837L359.859 722.355ZM281.083 676.873C246.825 686.052 226.421 721.392 235.601 755.65L233.669 756.167C224.204 720.843 245.241 684.406 280.565 674.941L281.083 676.873Z" fill="url(#paint16_linear)"/>
<path d="M215.836 760.485C203.821 715.641 230.433 669.548 275.276 657.532L275.794 659.464C232.017 671.193 206.038 716.19 217.768 759.967L215.836 760.485ZM275.276 657.532C320.12 645.516 366.213 672.128 378.229 716.972L376.297 717.489C364.567 673.713 319.57 647.734 275.794 659.464L275.276 657.532ZM378.229 716.972C390.245 761.815 363.633 807.909 318.789 819.924L318.272 817.993C362.048 806.263 388.027 761.266 376.297 717.489L378.229 716.972ZM318.789 819.924C273.946 831.94 227.852 805.328 215.836 760.485L217.768 759.967C229.498 803.743 274.495 829.722 318.272 817.993L318.789 819.924ZM218.68 759.722C230.256 802.925 274.824 828.656 318.027 817.08L318.545 819.012C274.275 830.874 228.61 804.509 216.748 760.239L218.68 759.722ZM318.027 817.08C361.23 805.504 386.962 760.936 375.385 717.733L377.317 717.215C389.179 761.485 362.815 807.15 318.545 819.012L318.027 817.08ZM375.385 717.733C363.809 674.53 319.241 648.798 276.038 660.374L275.52 658.442C319.79 646.58 365.455 672.945 377.317 717.215L375.385 717.733ZM276.038 660.374C232.835 671.951 207.104 716.519 218.68 759.722L216.748 760.239C204.886 715.969 231.25 670.305 275.52 658.442L276.038 660.374Z" fill="url(#paint17_linear)"/>
</g>
<path fill-rule="evenodd" clip-rule="evenodd" d="M1450.04 317.011C1450.04 321.634 1446.29 325.38 1441.67 325.38C1437.05 325.38 1433.3 321.634 1433.3 317.011C1433.3 312.388 1437.05 308.641 1441.67 308.641C1446.29 308.641 1450.04 312.388 1450.04 317.011Z" fill="#A796FF"/>
<path d="M174.834 236.571C49.0117 274.078 37.5498 413.701 41.609 478.085C41.2915 477.32 -6.74289 469.002 -6.98218 468.191C-154.501 377.819 18.2101 262.398 165.972 218.005C168.93 212.265 178.162 214.402 168.81 217.16C167.865 217.439 166.919 217.72 165.972 218.005C165.201 219.5 164.856 221.529 165.376 224.22C167.522 235.374 185.183 233.487 174.834 236.571Z" fill="url(#paint18_linear)"/>
<mask id="mask15" mask-type="alpha" maskUnits="userSpaceOnUse" x="80" y="101" width="177" height="271">
<rect x="256.078" y="348.789" width="46.9884" height="281.304" transform="rotate(151.397 256.078 348.789)" fill="#C4C4C4"/>
</mask>
<g mask="url(#mask15)">
<ellipse cx="142.102" cy="237.918" rx="46.9884" ry="56.2607" transform="rotate(151.397 142.102 237.918)" fill="#BF9046"/>
</g>
<path d="M189.322 186.191L210.396 225.886L140.73 273.78L112.389 220.397L189.322 186.191Z" fill="#EBD092"/>
<circle cx="175.092" cy="218.994" r="10.3999" transform="rotate(61.3974 175.092 218.994)" fill="#3728B7" stroke="#A796FF" stroke-width="4"/>
<path d="M219.85 194.842L189.322 186.19L210.396 225.885L219.85 194.842Z" fill="#A47333"/>
<path fill-rule="evenodd" clip-rule="evenodd" d="M237.293 439.03L233.105 460.545L211.588 456.359L215.777 434.842L237.293 439.03Z" fill="#00C988"/>
<mask id="mask16" mask-type="alpha" maskUnits="userSpaceOnUse" x="211" y="439" width="35" height="31">
<path fill-rule="evenodd" clip-rule="evenodd" d="M211.589 456.357L237.292 439.029L245.956 451.881L220.252 469.209L211.589 456.357Z" fill="white"/>
</mask>
<g mask="url(#mask16)">
<path fill-rule="evenodd" clip-rule="evenodd" d="M237.292 439.03L233.104 460.545L211.587 456.358L237.292 439.03Z" fill="#5FEEA4"/>
</g>
<path fill-rule="evenodd" clip-rule="evenodd" d="M266.95 274.832L246.004 281.289L239.545 260.342L260.493 253.885L266.95 274.832Z" fill="#A796FF"/>
<mask id="mask17" mask-type="alpha" maskUnits="userSpaceOnUse" x="232" y="260" width="35" height="29">
<path fill-rule="evenodd" clip-rule="evenodd" d="M239.547 260.342L266.951 274.831L259.707 288.532L232.302 274.043L239.547 260.342Z" fill="white"/>
</mask>
<g mask="url(#mask17)">
<path fill-rule="evenodd" clip-rule="evenodd" d="M266.951 274.83L246.004 281.288L239.545 260.341L266.951 274.83Z" fill="#E2DCFF"/>
</g>
<path fill-rule="evenodd" clip-rule="evenodd" d="M1280.32 104.003L1267.37 86.3192L1285.05 73.3661L1298 91.0515L1280.32 104.003Z" fill="#A796FF"/>
<mask id="mask18" mask-type="alpha" maskUnits="userSpaceOnUse" x="1265" y="71" width="21" height="34">
<path fill-rule="evenodd" clip-rule="evenodd" d="M1285.05 73.3674L1280.32 104.003L1265 101.637L1269.73 71.0013L1285.05 73.3674Z" fill="white"/>
</mask>
<g mask="url(#mask18)">
<path fill-rule="evenodd" clip-rule="evenodd" d="M1280.32 104.002L1267.37 86.319L1285.05 73.3659L1280.32 104.002Z" fill="#E2DCFF"/>
</g>
<path d="M1051.66 68.3624C1045.87 67.4618 1047.4 57.617 1041.61 56.7164C1035.81 55.8148 1034.28 65.6582 1028.49 64.7565C1022.69 63.8563 1024.22 54.0129 1018.42 53.1127C1012.62 52.2092 1011.09 62.0526 1005.29 61.149C999.484 60.2473 1001.02 50.4039 995.207 49.4988C989.399 48.597 987.866 58.4385 982.058 57.5368" stroke="#A796FF" stroke-width="3.1" stroke-linecap="round" stroke-linejoin="round"/>
<path fill-rule="evenodd" clip-rule="evenodd" d="M170 737.501L207.367 715.561L229.311 752.93L170 737.501Z" fill="#4E3BDB"/>
<path fill-rule="evenodd" clip-rule="evenodd" d="M170 737.501L207.367 715.561L199.653 745.215L170 737.501Z" fill="#A796FF"/>
<path fill-rule="evenodd" clip-rule="evenodd" d="M548.317 736.003L535.366 718.319L553.05 705.366L566.001 723.051L548.317 736.003Z" fill="#A796FF"/>
<mask id="mask19" mask-type="alpha" maskUnits="userSpaceOnUse" x="533" y="703" width="21" height="34">
<path fill-rule="evenodd" clip-rule="evenodd" d="M553.051 705.367L548.318 736.003L533.001 733.637L537.733 703.001L553.051 705.367Z" fill="white"/>
</mask>
<g mask="url(#mask19)">
<path fill-rule="evenodd" clip-rule="evenodd" d="M548.318 736.002L535.367 718.319L553.051 705.366L548.318 736.002Z" fill="#E2DCFF"/>
</g>
<rect opacity="0.6" width="1440" height="789" fill="white"/>
</g>
<defs>
<linearGradient id="paint0_linear" x1="1269.81" y1="548.952" x2="1091.18" y2="548.952" gradientUnits="userSpaceOnUse">
<stop stop-color="#3728B7"/>
<stop offset="1" stop-color="#4E3BDB"/>
</linearGradient>
<linearGradient id="paint1_linear" x1="1386.69" y1="432.614" x2="1014.9" y2="290.275" gradientUnits="userSpaceOnUse">
<stop stop-color="#4928F2"/>
<stop offset="1" stop-color="#C9FCD8"/>
</linearGradient>
<linearGradient id="paint2_linear" x1="900.584" y1="659.413" x2="1231.06" y2="785.936" gradientUnits="userSpaceOnUse">
<stop stop-color="#A796FF"/>
<stop offset="1" stop-color="#00C988"/>
</linearGradient>
<linearGradient id="paint3_linear" x1="1178.96" y1="384.679" x2="1302.32" y2="577.534" gradientUnits="userSpaceOnUse">
<stop stop-color="#E2DCFF"/>
<stop offset="1" stop-color="white"/>
</linearGradient>
<linearGradient id="paint4_linear" x1="1231.37" y1="829.078" x2="1276" y2="744.196" gradientUnits="userSpaceOnUse">
<stop stop-color="#B3A8FF"/>
<stop offset="1" stop-color="#3728B7"/>
</linearGradient>
<linearGradient id="paint5_linear" x1="937.805" y1="451.339" x2="937.805" y2="643.93" gradientUnits="userSpaceOnUse">
<stop stop-color="#D2CBFF"/>
<stop offset="0.249578" stop-color="#ABA3ED"/>
<stop offset="1" stop-color="#3728B7"/>
</linearGradient>
<linearGradient id="paint6_linear" x1="1005.02" y1="649.56" x2="1181.52" y2="717.134" gradientUnits="userSpaceOnUse">
<stop stop-color="#6851FF"/>
<stop offset="1" stop-color="#00C988"/>
</linearGradient>
<linearGradient id="paint7_linear" x1="188.628" y1="185.636" x2="206.396" y2="26.1736" gradientUnits="userSpaceOnUse">
<stop stop-color="#C9FCD8"/>
<stop offset="0.249578" stop-color="#C9FCD8"/>
<stop offset="1" stop-color="#00907E"/>
</linearGradient>
<linearGradient id="paint8_linear" x1="65.627" y1="560.061" x2="5.0592" y2="564.483" gradientUnits="userSpaceOnUse">
<stop offset="0.25" stop-color="#6851FF"/>
<stop offset="1" stop-color="#00C988" stop-opacity="0.6"/>
</linearGradient>
<linearGradient id="paint9_linear" x1="-157.461" y1="-149.263" x2="-166.857" y2="378.619" gradientUnits="userSpaceOnUse">
<stop stop-color="#4928F2"/>
<stop offset="1" stop-color="#C9FCD8"/>
</linearGradient>
<linearGradient id="paint10_linear" x1="474.263" y1="-106.608" x2="-19.4257" y2="-27.9714" gradientUnits="userSpaceOnUse">
<stop stop-color="#A796FF"/>
<stop offset="1" stop-color="#00C988"/>
</linearGradient>
<linearGradient id="paint11_linear" x1="1078.81" y1="187.424" x2="1062.41" y2="167.988" gradientUnits="userSpaceOnUse">
<stop offset="0.197917" stop-color="#6851FF"/>
<stop offset="1" stop-color="#00C988" stop-opacity="0.6"/>
</linearGradient>
<linearGradient id="paint12_linear" x1="280.612" y1="109.767" x2="301.505" y2="130.621" gradientUnits="userSpaceOnUse">
<stop offset="0.197917" stop-color="#6851FF"/>
<stop offset="1" stop-color="#00C988" stop-opacity="0.6"/>
</linearGradient>
<linearGradient id="paint13_linear" x1="315.324" y1="86.2592" x2="331.04" y2="107.154" gradientUnits="userSpaceOnUse">
<stop stop-color="#5FEEA4"/>
<stop offset="1" stop-color="#A796FF"/>
</linearGradient>
<linearGradient id="paint14_linear" x1="779.324" y1="698.26" x2="795.039" y2="719.154" gradientUnits="userSpaceOnUse">
<stop stop-color="#5FEEA4"/>
<stop offset="1" stop-color="#A796FF"/>
</linearGradient>
<linearGradient id="paint15_linear" x1="337.519" y1="735.954" x2="279.237" y2="713.64" gradientUnits="userSpaceOnUse">
<stop offset="0.197917" stop-color="#6851FF"/>
<stop offset="1" stop-color="#00C988" stop-opacity="0.6"/>
</linearGradient>
<linearGradient id="paint16_linear" x1="330.702" y1="680.889" x2="361.551" y2="721.903" gradientUnits="userSpaceOnUse">
<stop stop-color="#5FEEA4"/>
<stop offset="1" stop-color="#A796FF"/>
</linearGradient>
<linearGradient id="paint17_linear" x1="338.483" y1="665.671" x2="377.263" y2="717.23" gradientUnits="userSpaceOnUse">
<stop stop-color="#5FEEA4"/>
<stop offset="1" stop-color="#A796FF"/>
</linearGradient>
<linearGradient id="paint18_linear" x1="133.392" y1="240.265" x2="22.8326" y2="407.512" gradientUnits="userSpaceOnUse">
<stop stop-color="#FBA67F"/>
<stop offset="0.697917" stop-color="#FF5635" stop-opacity="0.2"/>
<stop offset="1" stop-color="#FF5635" stop-opacity="0"/>
</linearGradient>
<clipPath id="clip0">
<rect width="1440" height="789" fill="white"/>
</clipPath>
</defs>
</svg>